<?xml version="1.0" standalone="no"?>
<!DOCTYPE svg PUBLIC "-//W3C//DTD SVG 20010904//EN"
 "http://www.w3.org/TR/2001/REC-SVG-20010904/DTD/svg10.dtd">
<svg version="1.0" xmlns="http://www.w3.org/2000/svg"
 width="512.000000pt" height="512.000000pt" viewBox="0 0 512.000000 512.000000"
 preserveAspectRatio="xMidYMid meet">
<metadata>
Created by potrace 1.11, written by Peter Selinger 2001-2013
</metadata>
<g transform="translate(0.000000,512.000000) scale(0.100000,-0.100000)"
fill="#000000" stroke="none">
<path d="M3435 5096 c-175 -37 -255 -64 -400 -138 -238 -120 -419 -292 -522
-493 -39 -77 -93 -222 -93 -251 0 -9 -12 -14 -32 -15 -18 -1 -67 -2 -108 -4
-120 -4 -294 -15 -320 -20 -14 -3 -40 -7 -59 -10 -69 -9 -134 -38 -182 -80
-26 -24 -77 -63 -111 -86 -117 -79 -237 -168 -427 -317 -281 -220 -605 -515
-772 -704 -203 -230 -245 -362 -166 -521 74 -147 307 -416 396 -455 75 -34
131 -14 254 89 l39 32 -6 -59 c-4 -32 -8 -75 -11 -94 -12 -96 -18 -160 -30
-360 -10 -147 -13 -182 -19 -188 -3 -3 -23 -7 -44 -9 -91 -9 -208 -101 -259
-204 -26 -52 -46 -100 -47 -114 -8 -56 -19 -113 -24 -122 -4 -6 -38 -12 -77
-14 -205 -6 -279 -107 -270 -366 2 -57 6 -106 8 -110 3 -5 8 -30 12 -58 14
-110 81 -265 142 -332 59 -64 113 -87 201 -85 127 2 226 97 274 262 12 42 15
45 48 46 19 0 59 -4 90 -8 68 -10 283 -12 330 -4 19 4 49 9 65 12 64 10 150
61 209 122 33 34 62 59 66 57 4 -2 20 -7 36 -9 16 -3 72 -14 124 -25 132 -26
313 -23 390 7 99 39 155 91 217 202 16 28 43 94 48 120 1 3 6 23 13 45 19 67
46 222 57 330 11 102 13 107 49 100 216 -38 249 -42 346 -39 123 4 139 7 216
29 81 23 146 58 192 102 44 42 58 66 76 127 8 26 18 40 27 38 8 -2 30 -6 49
-8 19 -3 46 -7 60 -9 190 -35 388 -14 491 50 95 61 176 172 185 257 11 89 -62
201 -191 293 -74 53 -248 144 -393 205 l-103 43 6 41 c4 23 12 68 19 101 l12
60 111 1 c147 2 266 12 321 28 9 3 33 7 52 10 19 3 70 17 114 31 533 174 871
656 860 1227 -2 126 -5 149 -30 276 -31 151 -115 354 -213 512 -65 105 -198
238 -301 302 -67 42 -196 103 -239 114 -9 2 -47 13 -86 24 -107 31 -125 33
-350 36 -187 2 -222 0 -320 -20z m219 -80 c16 -4 33 -20 44 -44 29 -57 73
-209 97 -337 12 -63 17 -155 9 -155 -5 0 -31 7 -59 15 -96 30 -214 20 -310
-26 -107 -50 -161 -118 -226 -284 -7 -16 -13 -33 -13 -36 -1 -3 -14 -39 -31
-80 -22 -55 -45 -89 -86 -130 -51 -53 -63 -59 -160 -89 -167 -52 -241 -116
-324 -283 -22 -43 -42 -80 -46 -83 -7 -4 -23 53 -40 140 -41 215 -30 508 25
646 13 33 21 55 25 72 1 4 16 36 34 70 112 219 303 397 536 498 99 43 243 88
306 96 22 2 52 8 68 12 31 8 114 7 151 -2z m316 -8 c25 -5 52 -11 60 -13 21
-4 159 -54 195 -70 231 -101 308 -156 389 -278 65 -98 160 -284 192 -376 l23
-66 -22 -23 c-37 -40 -139 -83 -202 -87 -109 -5 -194 32 -498 215 l-202 122
-2 51 c-2 57 -11 151 -17 183 -2 12 -7 39 -10 60 -4 22 -11 57 -17 79 -6 22
-12 47 -14 55 -2 8 -12 41 -23 73 -12 32 -19 64 -16 72 10 24 68 25 164 3z
m-265 -602 c80 -17 217 -85 426 -212 272 -164 411 -213 539 -190 19 4 65 22
102 41 65 34 68 34 78 16 5 -11 10 -48 10 -83 l0 -63 -42 -1 c-24 -1 -78 -2
-120 -3 -102 -3 -167 11 -313 69 -66 26 -158 62 -205 81 -114 43 -193 83 -261
131 -106 74 -321 154 -384 142 -82 -15 -139 -86 -199 -249 -49 -133 -89 -212
-128 -256 -35 -39 -121 -99 -141 -99 -7 0 -21 -6 -32 -14 -11 -7 -31 -17 -45
-21 -102 -31 -220 -109 -256 -171 -104 -178 -79 -346 76 -506 37 -37 71 -68
77 -68 6 0 13 -3 15 -7 3 -9 64 -53 72 -53 3 0 27 -13 53 -28 65 -38 237 -104
353 -136 96 -26 115 -30 204 -45 88 -15 227 -3 366 33 71 18 292 122 310 145
3 4 28 23 55 43 28 20 84 72 125 115 221 230 318 397 408 703 21 72 3 -165
-19 -255 -95 -377 -416 -680 -823 -775 -125 -29 -161 -33 -301 -34 -118 0
-203 6 -266 20 -13 3 -37 8 -54 10 -16 3 -70 19 -120 35 -293 97 -509 268
-622 493 -32 64 -35 75 -29 130 16 161 177 365 326 411 113 35 144 51 195 101
57 54 92 116 148 264 20 52 56 124 79 159 89 134 171 164 343 127z m-1310
-488 c1 -188 5 -236 34 -373 17 -81 19 -101 13 -112 -10 -15 -118 -53 -150
-53 -20 1 -35 12 -59 43 -17 23 -40 51 -50 62 -10 11 -54 67 -98 125 -43 58
-82 107 -85 110 -3 3 -9 12 -15 21 -5 9 -43 62 -83 119 -93 128 -105 150 -90
168 26 31 80 47 188 58 36 4 66 8 68 9 1 1 75 3 165 4 l162 2 0 -183z m-647
-10 c24 -43 193 -280 212 -298 8 -7 74 -90 116 -146 21 -27 42 -54 48 -60 6
-6 22 -26 36 -44 14 -18 30 -39 37 -45 15 -16 -34 -64 -182 -180 -21 -16 -96
-75 -166 -130 -70 -55 -138 -108 -151 -117 -12 -9 -36 -28 -53 -41 -16 -14
-167 -134 -335 -268 -167 -134 -318 -260 -335 -279 -43 -49 -80 -84 -157 -146
-87 -72 -127 -80 -190 -36 -43 29 -129 117 -178 182 -14 18 -38 49 -53 68 -15
20 -42 65 -59 101 -44 92 -42 159 6 255 19 39 46 83 58 98 13 14 37 44 55 66
73 88 258 268 453 437 30 26 69 60 85 74 17 15 71 60 120 102 50 41 101 84
115 96 117 102 463 363 480 363 5 0 21 -24 38 -52z m787 -680 c69 -132 131
-220 220 -310 113 -114 254 -206 412 -269 64 -25 95 -35 176 -54 43 -10 58
-17 66 -34 13 -24 -11 -137 -43 -201 -77 -153 -275 -400 -321 -400 -32 0 -173
47 -275 91 -95 42 -122 89 -124 212 0 80 9 202 19 229 5 16 15 72 20 118 12
112 -102 243 -267 309 -104 42 -184 52 -293 38 -184 -24 -325 -134 -408 -317
-72 -158 -96 -411 -63 -652 15 -112 84 -255 158 -330 21 -20 145 -128 157
-135 2 -2 2 -5 -1 -8 -8 -8 -221 80 -307 126 -259 141 -455 320 -537 493 -52
107 -49 121 44 204 72 66 313 260 517 417 50 38 92 72 95 75 3 3 19 16 37 28
18 13 42 32 55 42 21 18 85 69 183 145 105 82 164 133 210 179 37 38 67 58
120 78 38 15 77 26 85 25 8 -1 38 -46 65 -99z m-132 -401 c44 -22 94 -58 130
-93 81 -81 76 -115 -13 -86 -28 9 -87 15 -155 15 -177 0 -355 -58 -533 -173
-88 -57 -93 -56 -65 26 36 106 97 196 172 255 96 75 177 101 304 95 77 -3 98
-8 160 -39z m103 -238 c49 -23 68 -59 58 -110 -12 -63 -12 -313 0 -328 9 -12
6 -13 -19 -6 -139 38 -233 38 -352 0 -43 -13 -107 -43 -143 -66 -101 -64 -148
-128 -210 -284 -13 -32 -77 113 -95 215 -21 117 -22 315 -2 335 86 85 339 219
456 241 14 3 28 7 32 10 5 3 36 7 71 11 35 3 65 7 67 9 9 8 101 -10 137 -27z
m1051 -371 c50 -21 70 -34 64 -42 -9 -11 -78 -182 -87 -214 -20 -76 -53 -250
-50 -264 2 -10 0 -18 -5 -18 -5 0 -5 -10 0 -23 13 -33 -4 -58 -35 -53 -73 13
-90 26 -128 92 -21 36 -69 97 -107 136 -38 39 -69 74 -69 77 0 4 37 45 81 91
102 106 174 192 195 231 18 36 26 35 141 -13z m206 -94 c134 -67 242 -157 283
-235 25 -49 24 -126 -4 -170 -52 -84 -171 -131 -343 -136 -145 -3 -153 1 -152
83 1 97 27 226 70 353 21 62 60 140 71 141 1 0 35 -16 75 -36z m-1259 -34 c34
-11 83 -38 119 -66 33 -25 80 -55 104 -66 24 -10 43 -21 43 -24 0 -3 -11 -17
-25 -32 -26 -28 -103 -169 -110 -200 -2 -9 -11 -37 -20 -62 -10 -25 -30 -96
-45 -158 -16 -63 -31 -116 -34 -119 -8 -9 -119 28 -206 68 -84 39 -222 121
-248 146 -7 7 -17 13 -22 13 -16 0 -150 139 -151 157 -4 49 4 90 26 132 31 57
39 68 95 113 127 101 328 143 474 98z m-1443 -32 c35 -69 133 -186 220 -263
260 -229 618 -403 869 -422 71 -5 107 -14 189 -45 l53 -21 -6 -71 c-7 -84 -17
-160 -22 -165 -1 -2 -40 13 -86 33 -73 31 -189 64 -283 80 -39 7 -193 19 -222
17 -21 -1 -23 4 -23 52 0 56 -6 70 -32 80 -28 10 -49 -16 -54 -68 -6 -60 -12
-146 -13 -200 -2 -71 -6 -71 -147 -1 -141 70 -314 134 -439 161 -92 20 -105
28 -100 58 3 19 8 84 20 262 4 66 15 197 20 260 3 28 7 84 10 125 4 41 8 86 9
100 2 14 4 35 4 48 3 31 9 28 33 -20z m1937 -183 c123 -56 227 -167 258 -272
15 -51 15 -55 -6 -98 -40 -82 -173 -178 -264 -190 -85 -10 -204 -7 -296 9 -91
16 -90 16 -84 44 55 242 114 401 180 489 42 56 116 62 212 18z m-2135 -655 c0
-52 -3 -140 -4 -196 l-3 -101 -95 4 c-110 4 -160 17 -162 41 -1 9 -2 24 -3 32
-2 29 24 118 49 163 51 90 132 155 192 153 l28 -1 -2 -95z m287 -80 c137 -45
250 -93 383 -162 109 -58 108 -56 82 -159 -30 -113 -124 -289 -183 -343 -28
-25 -73 -16 -181 36 -105 50 -229 169 -276 263 -26 54 -29 70 -29 160 -1 106
9 229 19 245 8 13 52 4 185 -40z m855 -15 c63 -12 192 -49 235 -67 77 -33 110
-64 110 -104 0 -57 -60 -247 -92 -289 -42 -55 -58 -67 -85 -60 -77 19 -277
233 -379 405 -49 82 -52 110 -14 122 26 7 173 3 225 -7z m-188 -260 c5 -5 22
-28 38 -49 69 -92 197 -222 228 -232 26 -8 20 -21 -12 -26 -62 -9 -272 1 -381
18 -19 3 -41 6 -47 6 -16 2 -16 0 3 45 39 88 59 151 69 208 10 57 17 98 20
115 2 8 4 17 4 19 1 3 16 -18 35 -45 19 -27 39 -53 43 -59z m-1322 -47 c-14
-107 -16 -124 -17 -168 -1 -78 12 -214 23 -241 9 -23 22 -30 96 -47 47 -11 90
-25 95 -30 6 -6 4 -23 -6 -46 -8 -20 -13 -36 -10 -36 2 0 -3 -15 -12 -33 -61
-121 -200 -152 -285 -64 -89 93 -136 276 -141 545 -1 63 2 76 23 99 35 38 110
68 180 71 l61 3 -7 -53z m260 27 c128 -7 130 -8 149 -60 22 -55 90 -149 153
-211 59 -57 170 -131 209 -139 57 -13 61 -15 37 -28 -32 -18 -339 -12 -455 8
-15 3 -54 9 -85 14 -180 28 -226 62 -228 171 -1 33 2 85 7 114 9 63 16 116 17
134 1 10 14 12 54 7 28 -3 93 -8 142 -10z"/>
<path d="M2771 4514 c-59 -21 -88 -40 -134 -86 -111 -112 -104 -275 18 -375
45 -37 86 -50 150 -47 164 8 309 144 309 289 -1 97 -45 164 -139 209 -57 28
-143 32 -204 10z m121 -82 c14 -6 29 -15 32 -20 3 -6 18 -13 32 -16 44 -11 58
-33 58 -90 -2 -158 -171 -257 -298 -174 -65 43 -75 119 -27 203 33 58 44 68
97 94 40 20 62 20 106 3z"/>
</g>
</svg>
