<svg id="Layer_1" data-name="Layer 1" xmlns="http://www.w3.org/2000/svg" viewBox="0 0 150 150"><defs><style>.cls-1{fill:#97c93d;}.cls-2{fill:#fff;}.cls-3{opacity:0.1;}</style></defs><title>TZ_NATIVEPLANTS</title><path class="cls-1" d="M96.24,13.91c-25.76-8.78-54.33.76-71.08,21.81-17,21.34-19.48,51.89-5.59,75.45,14.07,23.89,42.5,36.19,69.51,29.52,29.55-7.29,50.12-35.07,50.44-65.14C139.23,48.24,122.47,22.84,96.24,13.91Z"/><path class="cls-2" d="M45,92.08l.2-.4-.2.06a.66.66,0,0,0-.48-.64c-.65-.15-1.59.72-1.75,1l-.14.29h0v0A27,27,0,0,0,40.75,100v.12a91.46,91.46,0,0,0-.68,16.65V117l.12.1c.6.53,1.21,1,1.83,1.53l.62.49,0-.79c-.11-2.24-.17-4.2-.19-6a93.14,93.14,0,0,1,.41-10.72,166.11,166.11,0,0,0,2.42,19.3l0,.15.13.08q1.05.7,2.13,1.38l.69.42-.15-.8A153,153,0,0,1,45,92.08Z"/><path class="cls-2" d="M105.57,76.83a20.61,20.61,0,0,1,2-2.45c.36-.36.68-1.17.34-1.62-.1-.14-.42-.44-1.1-.06l-.07,0,0-.08-.22.21A45.39,45.39,0,0,0,86.66,95,124.37,124.37,0,0,1,90.4,67.69c3.15-12.17,8.27-22.22,15.22-29.87.35-.38.65-1.24.3-1.66-.13-.16-.45-.38-1.08,0l-.06,0,0-.12-.3.32c-5.2,3.3-9.29,8.94-12.28,13.52A86.56,86.56,0,0,0,87.51,58a51.67,51.67,0,0,1,7.87-27.4.83.83,0,0,0-1.15-1.18c-3.1,1.88-6.08,5-9.11,9.44-4.75,7-7.84,15.73-9.25,25.88l0-.13v0c-2.27-9.57-4.53-18.25-8-26.6l-.25-.61c-1.16-2.82-2.6-6.32-5.17-8.09l-.09-.3-.17.14a1.26,1.26,0,0,0-1.3.24,1.63,1.63,0,0,0-.74,1.46l-.16.14.25.16a142.14,142.14,0,0,1,3.47,18c1.56,10.54,2.62,21.66,3.25,33.87C63.17,66.37,56.4,51.41,47.17,39.56c-.84-1.08-1.74-2.2-2.72-3.24h0l-.24-.25L44,35.77l-.09.09a1.32,1.32,0,0,0-1.23.39A1.59,1.59,0,0,0,42,37.67l-.08.08.23.24c7.31,9.42,9.57,22.19,10.73,32.25.53,4.57.81,8.76.9,12.78a93.86,93.86,0,0,0-5.49-10.9,34.58,34.58,0,0,0-2.45-3.77L45.74,68l-.11.09a.93.93,0,0,0-1,.05c-.55.32-1.18,1.08-1,1.67l-.06.05.14.17A214,214,0,0,1,52.9,99.3c-.64,8.22-.93,16.77-.86,25.41v.23l.2.09c.57.28,1.13.54,1.71.8l.51.22v-.55c-.07-6,0-11.84.28-17.57a181.56,181.56,0,0,1,2.63,19l0,.23.4.14c.5.18,1,.36,1.53.52l.5.16,0-.52a195.07,195.07,0,0,0-4.25-28.14l-.21-.93,0-.35a.63.63,0,0,0-.25-.62l-.31-1.32v.11c-.91-3.76-1.92-7.52-3.06-11.27q1.06,2.5,2.06,5.11s0,0,0,.06a.75.75,0,0,0,.07.18s0,.05,0,.07a178.68,178.68,0,0,1,8.22,30.32c.47,2.5.91,5.13,1.35,8l0,.24.24.06c.63.14,1.27.27,1.91.39l.49.09-.07-.5a206.16,206.16,0,0,0-6.38-29.6c-1.13-3.83-2.28-7.3-3.52-10.6h0A125.43,125.43,0,0,0,55.28,69,97,97,0,0,0,51.92,51.7a114.75,114.75,0,0,1,11.23,27A133,133,0,0,1,67.56,105c.06,7.88,0,16.1-.33,24.44v.31l.32.05,1.65.22.39,0v-.39c.32-8.84.43-17.31.37-25.54v0c-.09-10.08-.44-19.79-1.1-29.27A289.64,289.64,0,0,0,64,36.05c.39.78.73,1.57,1,2.31l.12.29a113.05,113.05,0,0,1,4.54,13c2.32,7.87,4.45,16.52,6.7,27.21.38,1.8.82,3.94,1.23,6.09a.61.61,0,0,0,.3.44.7.7,0,0,0,.14,0l0,.2h0c-1.13,5.2-2.07,10.8-2.79,16.68A230.78,230.78,0,0,0,73.63,130v.34l.79,0,1,0H76V130c-.11-21.28,2.27-39.51,7.3-55.73,3.71-12,8.36-21.37,14.16-28.54-7.57,12.17-11.93,27.89-13,46.81-.26,4.61-.32,9.45-.2,14.39l0,.56c0,.46,0,.92,0,1.38V109h0c.24,6.4.8,13.08,1.69,19.87l0,.39.38-.08,1.46-.35h0l.48-.12.1,0,.08,0h0l1.49-.4.24-.07,0-.25a128.45,128.45,0,0,1,5.86-31.92C98.8,88.11,101.87,81.83,105.57,76.83ZM79.29,80.21v0c-.57-2.81-1.19-5.72-1.86-8.69h0v0a1,1,0,0,0,.11-.35h0c.75-12.82,3.88-23.41,9.32-31.49a37,37,0,0,1,4-5,54.12,54.12,0,0,0-5.67,27.71,1,1,0,0,0,.08.32l0,.06h0a115.56,115.56,0,0,0-6,17.51Zm7.49,29.14a.75.75,0,0,0,0-.23c-1.11-11.56,5.1-23.77,15.92-31.61-1,1.52-1.9,3.07-2.67,4.45-4.49,8.07-7.73,17.56-9.91,29-.88,4.64-1.53,9.58-2,14.7C87.5,120.06,87,114.57,86.78,109.35Z"/><path class="cls-2" d="M111.33,101.67h0a7.78,7.78,0,0,0-1.67,0,1,1,0,0,0-.5,0,13.55,13.55,0,0,0-5.9,2.48c-7,5.32-9.14,15.34-10.1,22.41l0,.16a.37.37,0,0,0,.14.32.35.35,0,0,0,.22.08.27.27,0,0,0,.12,0l1.33-.5a.38.38,0,0,0,.23-.29,53.52,53.52,0,0,1,3-11.9c1.26-3.27,3.44-7.32,6.94-9.39-3.25,3.92-4.41,10.26-5,15.55-.13,1.08-.24,2.17-.33,3.25a.36.36,0,0,0,.36.39.32.32,0,0,0,.16,0l.1,0,1.32-.71a.38.38,0,0,0,.18-.28,55.25,55.25,0,0,1,2-11.2c1-3.49,2.7-7.58,6.4-8.2.4-.07,1.63-1,1.62-1.57A.54.54,0,0,0,111.33,101.67Z"/></svg>