<svg id="Layer_1" data-name="Layer 1" xmlns="http://www.w3.org/2000/svg" viewBox="0 0 150 150"><defs><style>.cls-1{fill:#97c93d;}.cls-2{fill:none;}.cls-3{opacity:0.1;}</style></defs><title>TZ_NATIVEPLANTS</title><path class="cls-1" d="M134.27,76c-.27,26-16.08,50.22-41.35,58.23-23.94,7.58-50.28-1.09-65.81-20.6-16-20.15-18.33-49.31-5.25-71.57A59.44,59.44,0,0,1,87,14.71c28,6.9,47,32.89,47.27,61.31,0,2.36,4.06-.36,4-2C138,46.67,121.26,21.27,95,12.33,69.28,3.55,40.7,13.1,24,34.15,7,55.49,4.47,86,18.36,109.6c14.07,23.89,42.5,36.19,69.51,29.52C117.42,131.83,138,104.05,138.31,74,138.33,71.64,134.29,74.34,134.27,76Z"/><path class="cls-2" d="M98.44,82c.77-1.38,1.66-2.93,2.67-4.45-10.82,7.84-17,20-15.93,31.61a.86.86,0,0,1,0,.24c.25,5.2.72,10.69,1.39,16.3a147.06,147.06,0,0,1,2-14.7C90.71,99.52,94,90,98.44,82Z"/><path class="cls-2" d="M83.66,62.74l0-.06a.79.79,0,0,1-.08-.32,54.22,54.22,0,0,1,5.66-27.71,38.57,38.57,0,0,0-4,5c-5.43,8.08-8.56,18.67-9.32,31.49h0a.81.81,0,0,1-.1.35v0h0c.67,3,1.29,5.88,1.85,8.69h0v0a115.94,115.94,0,0,1,6-17.51Z"/><path class="cls-1" d="M43.36,92.08l.2-.4-.2.06a.65.65,0,0,0-.49-.64c-.64-.15-1.58.72-1.74,1-.05.1-.1.19-.14.29h0v0A27,27,0,0,0,39.13,100l0,.13a92.43,92.43,0,0,0-.67,16.65V117l.11.1c.6.53,1.21,1,1.84,1.53l.62.49,0-.79c-.12-2.29-.17-4.2-.19-6a93.31,93.31,0,0,1,.41-10.73,168.33,168.33,0,0,0,2.41,19.31l0,.15.13.08c.69.47,1.4.93,2.12,1.38l.7.42-.16-.8A153,153,0,0,1,43.36,92.08Z"/><path class="cls-1" d="M104,76.83a21.6,21.6,0,0,1,2-2.45c.37-.36.69-1.17.35-1.62-.1-.14-.42-.44-1.11-.06l-.06,0,0-.08-.21.21A45.3,45.3,0,0,0,85,95a124.37,124.37,0,0,1,3.74-27.33C91.92,55.52,97.05,45.47,104,37.82c.35-.38.64-1.24.3-1.66-.14-.16-.46-.38-1.09,0l0,0,0-.12-.29.32c-5.2,3.3-9.29,8.94-12.28,13.52A84.44,84.44,0,0,0,85.88,58a51.76,51.76,0,0,1,7.88-27.4.83.83,0,0,0-1.15-1.18c-3.1,1.88-6.08,5-9.11,9.44-4.75,7-7.84,15.73-9.26,25.89l0-.13h0c-2.28-9.56-4.53-18.25-8-26.6L66,37.46c-1.16-2.82-2.6-6.32-5.18-8.09l-.08-.3-.17.14a1.26,1.26,0,0,0-1.3.24,1.63,1.63,0,0,0-.74,1.46l-.16.14.24.16a142.48,142.48,0,0,1,3.47,18c1.56,10.54,2.62,21.65,3.25,33.87C61.55,66.37,54.78,51.41,45.55,39.56c-.84-1.08-1.74-2.2-2.72-3.24h0l-.24-.25-.23-.29-.09.09a1.32,1.32,0,0,0-1.23.39,1.59,1.59,0,0,0-.65,1.42l-.08.08.23.24h0c7.31,9.43,9.57,22.19,10.73,32.25.52,4.56.81,8.76.9,12.78a95.47,95.47,0,0,0-5.49-10.9,36.13,36.13,0,0,0-2.45-3.77L44.11,68l-.1.09a.91.91,0,0,0-1,.05c-.55.32-1.18,1.08-1.05,1.67l0,.05L42,70a214.33,214.33,0,0,1,9.26,29.25h0c-.64,8.21-.93,16.76-.87,25.41v.23l.21.09c.56.28,1.13.54,1.71.8l.51.22v-.55c-.08-6,0-11.84.28-17.57a181.56,181.56,0,0,1,2.63,19l0,.23.42.15q.75.27,1.5.51l.51.16,0-.52A196.47,196.47,0,0,0,53.9,99.35l-.22-.93,0-.35a.65.65,0,0,0-.26-.62l-.3-1.33v.11c-.91-3.75-1.92-7.51-3.07-11.26q1.08,2.5,2.07,5.11s0,0,0,.06a.75.75,0,0,0,.07.18s0,.05,0,.07a179.59,179.59,0,0,1,8.23,30.32c.47,2.52.91,5.14,1.35,8l0,.24.24.06q1,.21,1.92.39l.49.09-.07-.5a207.52,207.52,0,0,0-6.38-29.6c-1.14-3.83-2.29-7.3-3.52-10.6h0A127.86,127.86,0,0,0,53.66,69,97,97,0,0,0,50.3,51.7a114.92,114.92,0,0,1,11.23,27A132.15,132.15,0,0,1,65.93,105c.07,7.88,0,16.1-.32,24.44v.31l.32.05,1.65.22.38,0,0-.39c.31-8.84.43-17.31.36-25.54v0C68.25,94,67.9,84.25,67.24,74.77a291.52,291.52,0,0,0-4.89-38.72c.38.78.72,1.57,1,2.31l.13.29a115,115,0,0,1,4.54,13c2.32,7.86,4.44,16.5,6.69,27.21.38,1.8.83,3.94,1.23,6.09a.62.62,0,0,0,.31.44.58.58,0,0,0,.14,0l0,.2h0c-1.13,5.2-2.07,10.8-2.78,16.68A228.72,228.72,0,0,0,72,130v.34l.79,0,1,0h.55V130c-.12-21.28,2.27-39.51,7.29-55.73,3.71-12,8.37-21.37,14.17-28.54-7.58,12.17-11.94,27.89-13,46.81-.25,4.62-.32,9.46-.19,14.39h0c0,.67,0,1.38.06,2.1h0c.23,6.4.8,13.08,1.69,19.87l0,.39.37-.08,1.47-.35h0l.48-.12.1,0,.07,0h0l1.5-.4.24-.07,0-.25a128,128,0,0,1,5.86-31.92C97.18,88.11,100.25,81.82,104,76.83ZM77.67,80.22h0c-.56-2.81-1.18-5.72-1.85-8.69h0v0a.81.81,0,0,0,.1-.35h0c.76-12.82,3.89-23.41,9.32-31.49a38.57,38.57,0,0,1,4-5A54.22,54.22,0,0,0,83.6,62.36a.79.79,0,0,0,.08.32l0,.06h0a115.94,115.94,0,0,0-6,17.51Zm7.49,29.14a.86.86,0,0,0,0-.24c-1.1-11.56,5.11-23.77,15.93-31.61-1,1.52-1.9,3.07-2.67,4.45C94,90,90.71,99.52,88.53,111a147.06,147.06,0,0,0-2,14.7C85.88,120.05,85.41,114.56,85.16,109.36Z"/><path class="cls-1" d="M109.71,101.67h0a7.77,7.77,0,0,0-1.67,0,1,1,0,0,0-.5,0,13.59,13.59,0,0,0-5.91,2.48c-7,5.32-9.13,15.34-10.09,22.41l.28,0v0l-.31.09a.36.36,0,0,0,.13.33.35.35,0,0,0,.22.08.28.28,0,0,0,.13,0l1.33-.5a.38.38,0,0,0,.23-.29,53.53,53.53,0,0,1,3-11.9c1.27-3.27,3.45-7.32,7-9.39-3.25,3.92-4.42,10.26-5.06,15.55-.13,1.08-.23,2.17-.32,3.25a.35.35,0,0,0,.15.33.36.36,0,0,0,.2.06.33.33,0,0,0,.17,0l.15-.08,1.26-.68a.36.36,0,0,0,.19-.28,55,55,0,0,1,2-11.2h0c1-3.49,2.71-7.58,6.41-8.2.4-.07,1.63-1,1.62-1.57A.54.54,0,0,0,109.71,101.67Z"/></svg>