<svg id="Layer_1" data-name="Layer 1" xmlns="http://www.w3.org/2000/svg" viewBox="0 0 150 150"><defs><style>.cls-1{fill:#ff8300;}.cls-2{fill:#fff;}.cls-3{opacity:0.1;}</style></defs><title>TZ_NATIVEPLANTS</title><path class="cls-1" d="M96.24,12.33c-25.76-8.78-54.33.77-71.08,21.82C8.18,55.49,5.68,86,19.57,109.6c14.07,23.89,42.5,36.19,69.51,29.52,29.55-7.29,50.12-35.07,50.44-65.14C139.23,46.67,122.47,21.27,96.24,12.33Z"/><path class="cls-2" d="M92.66,68.06c5.92-2.85,11.39-7.16,11.41-13.23,0-5.5-6-12.4-11.69-12.13-5.26.25-9,5.6-11.23,9.75a56.7,56.7,0,0,0-3.92,8.95c1.16-10.55-.74-24.69-14.38-21.17-14.07,3.64-11,15.16-4.84,24.38a26.51,26.51,0,0,0-7.84-2.76C42.38,60.59,37.52,66.68,36.82,74c-1,10.77,9.51,11.93,18.75,10.73-8.37,4.54-15.19,12-6.83,20.69,9,9.41,17.48-.08,22.49-9.47-.43,9.7,2.31,20.59,14.36,17.19,14.6-4.11,9-17.28,1.94-26.25a30.83,30.83,0,0,0,11.29,4.78c8.13,1.38,13.25-4.86,14-12.52C113.94,67.66,102.42,66.67,92.66,68.06ZM66.14,76a7.84,7.84,0,0,1,10.12-7.51,9.58,9.58,0,0,1,7,9C82.59,89.07,66.08,86.34,66.14,76ZM96.37,47.32c2.69,2.21,5.52,5.73,5.18,9.43-.31,3.43-3.29,5.8-6,7.5A42.88,42.88,0,0,1,83.9,69.17a1.59,1.59,0,0,0-.27.12,10.33,10.33,0,0,0-5.51-3.66C80.09,58,86.35,39.05,96.37,47.32ZM55,48.93c.61-5,6.87-7.11,11.32-6.78,10.13.73,9.37,15.31,8,23.22-.33,0-.66.08-1,.14a12.86,12.86,0,0,0-7.12,4.28,55.41,55.41,0,0,1-7.85-10.2C56.53,56.54,54.55,52.61,55,48.93ZM39.71,77.37c-1.41-3.6-.31-10,2.92-12.25,2.85-2,6.77-1,9.77.18A41.33,41.33,0,0,1,64,72.2a.62.62,0,0,0,.29.12l.19.2a11.34,11.34,0,0,0-1.16,4.88,10.09,10.09,0,0,0,.6,3.54C56.48,83,42.86,85.49,39.71,77.37Zm11.21,25.92C40.84,92.75,55.48,85.53,64.63,83.11a.86.86,0,0,0,.24-.11,10.77,10.77,0,0,0,7.83,4.94,1.34,1.34,0,0,0-.15.29s0,.07,0,.11a1.76,1.76,0,0,0-.45.72c-.07.35-.13.71-.2,1.07C68.47,99.07,60.51,113.32,50.92,103.29Zm41.76,1.26c-.39,5-6.28,7.15-10.7,6.88-9.7-.6-9.08-14.35-7.78-22,.2-.51.37-1,.54-1.47.26,0,.51,0,.78-.07a12,12,0,0,0,6.29-3,53.39,53.39,0,0,1,7.61,9.81C91.1,97.54,92.94,101.14,92.68,104.55Zm14.09-16.17c-2.89,2-7.11.85-10.09-.27A43.14,43.14,0,0,1,84.76,81a13.28,13.28,0,0,0,1.31-4.83,2,2,0,0,0,0-.23,1,1,0,0,0,0-.31,12,12,0,0,0-1-3.86c7.78-2.11,21.72-4.52,24.79,4C111.24,79.46,110.14,86,106.77,88.38Z"/></svg>