<svg id="Layer_1" data-name="Layer 1" xmlns="http://www.w3.org/2000/svg" viewBox="0 0 150 150"><defs><style>.cls-1{fill:#ff8300;}.cls-2{opacity:0.1;}</style></defs><title>TZ_NATIVEPLANTS</title><path class="cls-1" d="M95.54,12.76C69.78,4,41.21,13.52,24.45,34.58,7.48,55.91,5,86.46,18.87,110c14.07,23.89,42.5,36.19,69.51,29.52,29.55-7.29,50.12-35.07,50.44-65.14C138.53,47.09,121.77,21.7,95.54,12.76ZM93.43,134.67c-23.94,7.59-50.28-1.09-65.81-20.59-16-20.15-18.33-49.31-5.25-71.57A59.44,59.44,0,0,1,87.51,15.14c27.95,6.9,47,32.89,47.27,61.31C134.51,102.46,118.69,126.66,93.43,134.67Z"/><path class="cls-1" d="M92,68.48c5.92-2.84,11.39-7.15,11.41-13.22,0-5.51-6-12.4-11.7-12.13-5.25.25-9,5.6-11.22,9.75a56.3,56.3,0,0,0-3.92,8.95c1.16-10.55-.74-24.69-14.38-21.17C48.08,44.3,51.19,55.82,57.31,65a26.33,26.33,0,0,0-7.84-2.76C41.68,61,36.81,67.1,36.12,74.41c-1,10.76,9.51,11.93,18.75,10.73-8.37,4.54-15.19,12-6.84,20.69,9,9.41,17.49-.09,22.5-9.48-.44,9.71,2.31,20.6,14.36,17.2,14.6-4.11,9-17.28,1.94-26.25a30.83,30.83,0,0,0,11.29,4.78c8.13,1.38,13.25-4.87,14-12.52C113.24,68.09,101.72,67.1,92,68.48ZM65.44,76.37a7.85,7.85,0,0,1,10.12-7.51,9.59,9.59,0,0,1,7,9C81.89,89.49,65.38,86.77,65.44,76.37ZM95.67,47.75c2.69,2.21,5.52,5.73,5.18,9.43-.31,3.43-3.29,5.8-6,7.5A42.69,42.69,0,0,1,83.2,69.6a1.07,1.07,0,0,0-.27.12,10.4,10.4,0,0,0-5.51-3.67C79.39,58.44,85.65,39.48,95.67,47.75ZM54.29,49.36c.6-5,6.87-7.11,11.32-6.79,10.13.74,9.37,15.31,8,23.23-.33,0-.66.08-1,.14a12.8,12.8,0,0,0-7.12,4.28A55.41,55.41,0,0,1,57.64,60C55.83,57,53.85,53,54.29,49.36ZM39,77.8c-1.41-3.6-.31-10,2.92-12.25,2.84-2,6.77-1,9.77.18a41.33,41.33,0,0,1,11.55,6.9.58.58,0,0,0,.29.12l.19.19a11.37,11.37,0,0,0-1.16,4.88,10.18,10.18,0,0,0,.6,3.55C55.78,83.41,42.16,85.91,39,77.8Zm11.21,25.92C40.14,93.18,54.78,86,63.93,83.53a.82.82,0,0,0,.24-.1A10.77,10.77,0,0,0,72,88.37a1.55,1.55,0,0,0-.15.28s0,.08,0,.12a1.7,1.7,0,0,0-.45.72c-.07.35-.13.71-.2,1.07C67.76,99.5,59.81,113.74,50.22,103.72ZM92,105c-.38,5-6.27,7.15-10.69,6.87-9.7-.59-9.08-14.34-7.78-22L74,88.41c.26,0,.51,0,.78-.07a12,12,0,0,0,6.29-3,53.39,53.39,0,0,1,7.61,9.81C90.4,98,92.24,101.57,92,105Zm14.1-16.17c-2.89,2-7.11.85-10.09-.27a43.14,43.14,0,0,1-11.92-7.1,13.28,13.28,0,0,0,1.31-4.83,1.94,1.94,0,0,0,0-.24.92.92,0,0,0,0-.3,12,12,0,0,0-1-3.86c7.78-2.11,21.72-4.53,24.79,4C110.54,79.89,109.44,86.45,106.07,88.81Z"/></svg>