<svg id="Layer_1" data-name="Layer 1" xmlns="http://www.w3.org/2000/svg" viewBox="0 0 150 150"><defs><style>.cls-1{fill:#00b0ac;}.cls-2{fill:#fff;}.cls-3{opacity:0.1;}</style></defs><title>TZ_NATIVEPLANTS</title><path class="cls-1" d="M96.24,12.65c-25.76-8.78-54.33.76-71.08,21.82-17,21.33-19.48,51.88-5.59,75.45,14.07,23.89,42.5,36.18,69.51,29.52,29.55-7.29,50.12-35.07,50.44-65.14C139.23,47,122.47,21.59,96.24,12.65Z"/><path class="cls-2" d="M100.9,78.38a.51.51,0,0,0,0,.24.47.47,0,0,0,0,.21c.14,1.27,1.05,3.24,2.45,3.31,1.64.1,2.85-1.79,3.14-3.18.37-1.75-.16-3.6-2.26-3.53A3.53,3.53,0,0,0,100.9,78.38ZM104.43,80a.26.26,0,0,0,0,.08,2.88,2.88,0,0,1-.44-.31,3.62,3.62,0,0,1-1.09-2.18,1.23,1.23,0,0,0,0-.17H103a1.88,1.88,0,0,1,1,.17C104.76,78,104.68,79.25,104.43,80Z"/><path class="cls-2" d="M119.43,69.72c-3.73-2-8.58-.8-12.1,1.2a7.39,7.39,0,0,0-2.88-1.35,7.82,7.82,0,0,1,5.81-2c1.39.14,3.85-3.14,1.84-3.35-4-.41-7.93,2.15-10.64,5.13a11,11,0,0,0-5.18,1.56,10.25,10.25,0,0,0-6.23-4.35,1.38,1.38,0,0,1,0-.26,1.21,1.21,0,0,0,0-.45,1.8,1.8,0,0,0,.26-.49C94.49,51.18,78,40.6,67.36,36.06c-.81-.35-2,.67-2.41,1.24-2.74,3.89-1.6,8.66.48,12.65-2.6-.26-5.2-.37-7.7-.37a3.17,3.17,0,0,0-2.54,2.13c-1,4.64,2.71,9.06,6.2,11.55A38.34,38.34,0,0,0,78,69.58a11.35,11.35,0,0,0-2.4,3.17c-6.27-3.39-14-1-19.22,3.57-4,3.49-9.4,9.51-10.38,15.42L41.9,95.43c-.6.54-1.65,2.38-.14,2.47l5.59.33a6.2,6.2,0,0,0,.83.87.92.92,0,0,0,.18.74c1.41,1.7,2.73,3.58,4.26,5.16a1.9,1.9,0,0,1,.22.26c0,.43-.07.87-.1,1.29l-.24,3.26c-.14,1.93,3.3-.32,3.4-1.72s.71-3.64.25-5.14l1.3,1.22a9.15,9.15,0,0,0,.7.7c0,1.57.19,3.18.27,4.75.12,2,3.49-.31,3.41-1.72-.1-1.66,0-3.39-.29-5a2.11,2.11,0,0,0-.33-.86l1-.13,1.58,1.48a9.15,9.15,0,0,0,.7.7c0,1.57.19,3.18.27,4.75.12,2,3.49-.31,3.41-1.72-.1-1.67,0-3.4-.29-5a2.77,2.77,0,0,0-.71-1.39c.52-.18,1-.37,1.54-.58l1.47,1.38a9.54,9.54,0,0,0,.71.7c0,1.57.18,3.18.27,4.75.11,2,3.48-.31,3.4-1.72-.09-1.66,0-3.39-.28-5A3.82,3.82,0,0,0,72.76,98l.7-.44c.8.1,2.05-.87,2.54-1.86a31.19,31.19,0,0,0,3.46-3.35,10.33,10.33,0,0,0,1.79,1.45.71.71,0,0,0,.24.52l1.9,1.57,1.26,1.05a2.87,2.87,0,0,0,.45.37c-.08,1.59,0,3.2-.08,4.8,0,2,3.38-.31,3.4-1.72,0-.87,0-1.75,0-2.62a10.94,10.94,0,0,0,0-2.8.32.32,0,0,0,0-.09l.23-.08L90.14,96,91.4,97a2.77,2.77,0,0,0,.44.37c-.07,1.6,0,3.21-.07,4.8,0,2,3.38-.3,3.4-1.72,0-.87,0-1.75,0-2.62a10.44,10.44,0,0,0,0-2.79C95,94.3,94,93.76,93.42,93.27l-1.09-.9A17.16,17.16,0,0,0,95,88.77c1.51,2.08,3.42,3.64,5.63,3.86,5.27.51,8.6-6,9.44-10.24.68-3.45.44-7-1.08-9.5a9.34,9.34,0,0,1,7.89.08C118.17,73.65,121,70.55,119.43,69.72ZM91.85,97.42h0C92.16,97.47,91.9,98,91.85,97.42Zm-4-5.49a1.2,1.2,0,0,0,.14-1.15,37.88,37.88,0,0,1-4.67-21.1,11.55,11.55,0,0,1,2.81-.13,39.48,39.48,0,0,0,3.57,22A3.82,3.82,0,0,1,87.8,91.93Zm-5.29-3.19a21,21,0,0,1-4.62-9.17c-.58-3.18-.31-6.57,2-8.47A39.12,39.12,0,0,0,82.51,88.74ZM70.35,50.15c-1.52-2.2-4.22-6.7-3.82-10.08,8,3.7,19.63,11.1,21,20.63A19.72,19.72,0,0,0,85.21,58c-4-4-9.21-6.13-14.69-7.26A1,1,0,0,0,70.35,50.15ZM58.46,53c9.76.43,24,3.28,27.66,13.23a14.64,14.64,0,0,0-2.76.48,40.93,40.93,0,0,1-17.28-5.31C63.4,59.77,59.24,56.56,58.46,53ZM68,97.49a37.35,37.35,0,0,1-7.41-21.22,15.24,15.24,0,0,1,4.5-1.6,39.05,39.05,0,0,0,6.76,21.06A22.74,22.74,0,0,1,68,97.49ZM57.21,78.59a39.15,39.15,0,0,0,6.48,20l-1,.14-1.09.09a.87.87,0,0,0-.16-.37,37.61,37.61,0,0,1-7-17c.44-.51.87-1,1.26-1.39A20,20,0,0,1,57.21,78.59Zm-5.87,7a39.33,39.33,0,0,0,5.13,13,9.42,9.42,0,0,1-6.08-3.27.36.36,0,0,0-.07-.1,4.52,4.52,0,0,1-.34-.51C48.36,92,49.5,88.55,51.34,85.55Zm1.57,19.82ZM75.27,93.32a37.51,37.51,0,0,1-6.69-18.8,11.24,11.24,0,0,1,5.74,2.3,14.64,14.64,0,0,0,0,3.18A22.78,22.78,0,0,0,78,90.59,23.31,23.31,0,0,1,75.27,93.32Zm9.84,4h0C85.41,97.36,85.15,97.88,85.11,97.31Zm8.13-10.63a13.36,13.36,0,0,1-.68,1.51A38.45,38.45,0,0,1,89.23,70.3a8.52,8.52,0,0,1,4,3.46,10.35,10.35,0,0,0-1.79,4.9,1.54,1.54,0,0,0,0,.3,1.31,1.31,0,0,0,0,.36,19.88,19.88,0,0,0,2.07,6.94A2.18,2.18,0,0,0,93.24,86.68Zm13.11-1.27c-3.21,10-11.34-3.15-11.54-8.17.23-3,2.54-4.56,5.14-4.66a1,1,0,0,0,.22.17,1.16,1.16,0,0,0,1.07-.11,7.53,7.53,0,0,1,2.77.94C108,75.88,107.57,81.61,106.35,85.41Z"/></svg>