<svg id="Layer_1" data-name="Layer 1" xmlns="http://www.w3.org/2000/svg" viewBox="0 0 150 150"><defs><style>.cls-1{fill:#00b0ac;}.cls-2{opacity:0.1;}</style></defs><title>TZ_NATIVEPLANTS</title><path class="cls-1" d="M96.53,12.54c-25.76-8.78-54.34.76-71.09,21.82C8.47,55.69,6,86.24,19.85,109.81,33.93,133.7,62.36,146,89.37,139.33c29.54-7.3,50.12-35.08,50.44-65.14C139.52,46.87,122.76,21.48,96.53,12.54ZM94.42,134.45c-23.94,7.59-50.28-1.09-65.81-20.59-16-20.15-18.33-49.31-5.26-71.58A59.49,59.49,0,0,1,88.5,14.91c28,6.9,47,32.9,47.27,61.31C135.5,102.24,119.68,126.44,94.42,134.45Z"/><path class="cls-1" d="M101.19,78.27a.68.68,0,0,0,0,.23.58.58,0,0,0,0,.21c.13,1.28,1,3.24,2.45,3.32,1.64.09,2.84-1.79,3.14-3.18.37-1.75-.16-3.61-2.26-3.53A3.52,3.52,0,0,0,101.19,78.27Zm3.52,1.63s0,0,0,.08a3,3,0,0,1-.45-.31,3.66,3.66,0,0,1-1.08-2.18,1.23,1.23,0,0,0,0-.17h.09a1.94,1.94,0,0,1,1,.16C105.05,77.93,105,79.13,104.71,79.9Z"/><path class="cls-1" d="M107.62,70.81a7.43,7.43,0,0,0-2.89-1.35,7.9,7.9,0,0,1,5.82-2c1.39.15,3.85-3.13,1.83-3.34-4-.41-7.92,2.15-10.63,5.13a10.92,10.92,0,0,0-5.18,1.55,10.27,10.27,0,0,0-6.23-4.34,1.3,1.3,0,0,1,0-.26,1.21,1.21,0,0,0,0-.45,1.8,1.8,0,0,0,.26-.49C94.78,51.07,78.25,40.49,67.65,36c-.81-.35-2,.67-2.41,1.24-2.74,3.88-1.6,8.66.47,12.65A74.5,74.5,0,0,0,58,49.47a3.17,3.17,0,0,0-2.54,2.13c-1,4.63,2.71,9,6.2,11.55a38.34,38.34,0,0,0,16.57,6.32,11.16,11.16,0,0,0-2.4,3.17c-6.27-3.39-14-1-19.22,3.57-4,3.49-9.4,9.51-10.38,15.42l-4.06,3.69c-.6.54-1.65,2.38-.14,2.47l5.59.33a7.48,7.48,0,0,0,.82.87,1,1,0,0,0,.19.74c1.41,1.7,2.72,3.57,4.26,5.16a1.9,1.9,0,0,1,.22.26c0,.43-.07.86-.1,1.29l-.24,3.25c-.15,1.93,3.3-.31,3.4-1.71s.71-3.65.24-5.15l1.3,1.23a9.54,9.54,0,0,0,.71.7c0,1.57.18,3.18.27,4.75.11,2,3.48-.31,3.41-1.72-.1-1.66-.06-3.4-.29-5.05a2.17,2.17,0,0,0-.33-.86l1-.13L64,103.23a7.86,7.86,0,0,0,.71.71c0,1.57.18,3.17.27,4.75.11,2,3.48-.31,3.41-1.72-.1-1.67-.06-3.4-.29-5a2.71,2.71,0,0,0-.72-1.39c.53-.18,1-.37,1.55-.58l1.47,1.38a7.92,7.92,0,0,0,.71.7c0,1.57.18,3.18.27,4.75.11,2,3.48-.31,3.4-1.72-.09-1.66,0-3.4-.28-5A3.81,3.81,0,0,0,73,97.88l.71-.44c.8.1,2-.88,2.53-1.86a30.42,30.42,0,0,0,3.47-3.35,11.18,11.18,0,0,0,1.78,1.45.72.72,0,0,0,.25.51l1.9,1.58,1.26,1a2.8,2.8,0,0,0,.44.38c-.07,1.59,0,3.2-.07,4.8,0,2,3.38-.31,3.4-1.72,0-.88,0-1.75.05-2.62a10.94,10.94,0,0,0,0-2.8l0-.09.23-.08,1.45,1.2,1.26,1.05a2.77,2.77,0,0,0,.44.37c-.07,1.6,0,3.2-.07,4.8,0,2,3.38-.31,3.4-1.72,0-.87,0-1.75,0-2.62a10.51,10.51,0,0,0,0-2.8c-.22-.77-1.22-1.31-1.82-1.8l-1.09-.9a17.16,17.16,0,0,0,2.71-3.6c1.51,2.08,3.42,3.64,5.63,3.85,5.27.51,8.6-6,9.43-10.23.69-3.45.44-7-1.07-9.5a9.34,9.34,0,0,1,7.89.08c1.25.67,4.06-2.42,2.51-3.25C116,67.6,111.14,68.81,107.62,70.81ZM92.14,97.31h0C92.45,97.36,92.19,97.88,92.14,97.31Zm-4-5.49a1.22,1.22,0,0,0,.14-1.15,37.88,37.88,0,0,1-4.67-21.1,11.55,11.55,0,0,1,2.81-.14,39.5,39.5,0,0,0,3.57,22A3.82,3.82,0,0,1,88.09,91.82ZM82.8,88.63a20.93,20.93,0,0,1-4.62-9.17c-.58-3.18-.31-6.57,2-8.47A39,39,0,0,0,82.8,88.63ZM70.64,50c-1.52-2.2-4.22-6.7-3.82-10.09,8,3.7,19.62,11.11,21,20.64a19.79,19.79,0,0,0-2.28-2.72c-4-4-9.2-6.13-14.68-7.26A1,1,0,0,0,70.64,50ZM58.75,52.87c9.76.43,24,3.28,27.65,13.23a14.52,14.52,0,0,0-2.75.47,40.78,40.78,0,0,1-17.28-5.3C63.69,59.66,59.53,56.44,58.75,52.87Zm9.56,44.51a37.47,37.47,0,0,1-7.42-21.23,15.67,15.67,0,0,1,4.51-1.59,39,39,0,0,0,6.76,21.06A23.94,23.94,0,0,1,68.31,97.38ZM57.5,78.48a39,39,0,0,0,6.48,20c-.34.06-.68.11-1,.14l-1.1.1a1,1,0,0,0-.15-.38,37.53,37.53,0,0,1-7-17c.44-.51.87-1,1.26-1.39A20,20,0,0,1,57.5,78.48Zm-5.87,7a39.2,39.2,0,0,0,5.13,13,9.45,9.45,0,0,1-6.08-3.26.36.36,0,0,0-.07-.1c-.12-.16-.24-.33-.35-.51C48.64,91.84,49.79,88.44,51.63,85.44Zm1.57,19.82ZM75.56,93.21a37.51,37.51,0,0,1-6.69-18.8,11.21,11.21,0,0,1,5.73,2.3,14.64,14.64,0,0,0,0,3.18,22.78,22.78,0,0,0,3.71,10.59A23.31,23.31,0,0,1,75.56,93.21Zm9.84,4h0C85.7,97.25,85.44,97.77,85.4,97.19Zm8.13-10.62a13.36,13.36,0,0,1-.68,1.51,38.47,38.47,0,0,1-3.33-17.89,8.55,8.55,0,0,1,4,3.45,10.43,10.43,0,0,0-1.79,4.91,1,1,0,0,0,0,.3,1.23,1.23,0,0,0,0,.35,19.87,19.87,0,0,0,2.07,7A1.92,1.92,0,0,0,93.53,86.57Zm13.11-1.27c-3.21,10-11.34-3.15-11.54-8.17.23-3,2.54-4.56,5.14-4.67a.79.79,0,0,0,.22.18,1.13,1.13,0,0,0,1.07-.12,7.87,7.87,0,0,1,2.77,1C108.28,75.77,107.86,81.5,106.64,85.3Z"/></svg>